<svg width="40" height="40" viewBox="0 0 40 40" fill="none" xmlns="http://www.w3.org/2000/svg">
<path d="M40 0H0V40H40V0Z" fill="#3A3A1F"/>
<path d="M12.5 21.8994C12.6326 21.8994 12.7598 21.9521 12.8536 22.0458C12.9473 22.1396 13 22.2668 13 22.3994V24.8994C13 25.1646 13.1054 25.419 13.2929 25.6065C13.4804 25.794 13.7348 25.8994 14 25.8994H26C26.2652 25.8994 26.5196 25.794 26.7071 25.6065C26.8946 25.419 27 25.1646 27 24.8994V22.3994C27 22.2668 27.0527 22.1396 27.1464 22.0458C27.2402 21.9521 27.3674 21.8994 27.5 21.8994C27.6326 21.8994 27.7598 21.9521 27.8536 22.0458C27.9473 22.1396 28 22.2668 28 22.3994V24.8994C28 25.4298 27.7893 25.9385 27.4142 26.3136C27.0391 26.6887 26.5304 26.8994 26 26.8994H14C13.4696 26.8994 12.9609 26.6887 12.5858 26.3136C12.2107 25.9385 12 25.4298 12 24.8994V22.3994C12 22.2668 12.0527 22.1396 12.1464 22.0458C12.2402 21.9521 12.3674 21.8994 12.5 21.8994Z" fill="white"/>
<path d="M19.6466 23.854C19.6931 23.9006 19.7483 23.9375 19.809 23.9627C19.8697 23.9879 19.9349 24.0009 20.0006 24.0009C20.0664 24.0009 20.1315 23.9879 20.1923 23.9627C20.253 23.9375 20.3082 23.9006 20.3546 23.854L23.3546 20.854C23.4485 20.7601 23.5013 20.6328 23.5013 20.5C23.5013 20.3672 23.4485 20.2399 23.3546 20.146C23.2607 20.0521 23.1334 19.9994 23.0006 19.9994C22.8679 19.9994 22.7405 20.0521 22.6466 20.146L20.5006 22.293V13.5C20.5006 13.3674 20.448 13.2402 20.3542 13.1464C20.2604 13.0527 20.1332 13 20.0006 13C19.868 13 19.7408 13.0527 19.6471 13.1464C19.5533 13.2402 19.5006 13.3674 19.5006 13.5V22.293L17.3546 20.146C17.2607 20.0521 17.1334 19.9994 17.0006 19.9994C16.8679 19.9994 16.7405 20.0521 16.6466 20.146C16.5527 20.2399 16.5 20.3672 16.5 20.5C16.5 20.6328 16.5527 20.7601 16.6466 20.854L19.6466 23.854Z" fill="white"/>
</svg>
