<svg width="114" height="44" viewBox="0 0 114 44" fill="none" xmlns="http://www.w3.org/2000/svg">
<path d="M54.6584 36.1644H54.1537V32.6178H52.9069V32.1759H55.897V32.6178H54.6584V36.1644ZM59.0589 33.349C59.0589 33.7564 58.9198 34.0692 58.6415 34.2875C58.3632 34.5039 57.9713 34.6121 57.4656 34.6121H57.0073V36.1644H56.5053V32.1759H57.5611C58.5596 32.1759 59.0589 32.5669 59.0589 33.349ZM57.0073 34.1811H57.4084C57.8048 34.1811 58.0922 34.1174 58.2705 33.9901C58.4487 33.861 58.5378 33.6545 58.5378 33.3708C58.5378 33.1144 58.4551 32.9225 58.2895 32.7952C58.124 32.6678 57.8658 32.6042 57.5148 32.6042H57.0073V34.1811ZM63.3694 34.1647C63.3694 34.8031 63.2075 35.3051 62.8838 35.6706C62.5618 36.0362 62.1108 36.219 61.5306 36.219C60.9431 36.219 60.4884 36.0398 60.1665 35.6815C59.8464 35.3214 59.6864 34.814 59.6864 34.1592C59.6864 33.5099 59.8455 33.007 60.1638 32.6506C60.4839 32.2923 60.9413 32.1131 61.536 32.1131C62.1144 32.1131 62.5646 32.295 62.8865 32.6588C63.2084 33.0207 63.3694 33.5227 63.3694 34.1647ZM60.2156 34.1647C60.2156 34.6921 60.3275 35.0941 60.5512 35.3705C60.7749 35.647 61.1014 35.7852 61.5306 35.7852C61.958 35.7852 62.2826 35.6488 62.5045 35.376C62.7264 35.1032 62.8374 34.6994 62.8374 34.1647C62.8374 33.6318 62.7273 33.2308 62.5073 32.9616C62.2872 32.6906 61.9635 32.5551 61.536 32.5551C61.1032 32.5551 60.7749 32.6924 60.5512 32.967C60.3275 33.2398 60.2156 33.6391 60.2156 34.1647ZM65.4346 36.1644H64.9299V32.6178H63.6831V32.1759H66.6731V32.6178H65.4346V36.1644ZM67.538 36.219C67.3325 36.219 67.1515 36.1917 66.9951 36.1371V35.6624C67.1606 35.737 67.3361 35.7743 67.5216 35.7743C67.7162 35.7743 67.8726 35.7288 67.9908 35.6379C68.1109 35.547 68.2264 35.3814 68.3373 35.1414L66.8014 32.1759H67.3525L68.4928 34.3939C68.5383 34.4793 68.5774 34.5739 68.6101 34.6776H68.632L68.6538 34.6121L68.7384 34.3884L69.6932 32.1759H70.2252L68.9512 35.0295C68.8002 35.3678 68.6629 35.6142 68.5392 35.7688C68.4155 35.9234 68.2737 36.0371 68.1136 36.1099C67.9554 36.1826 67.7635 36.219 67.538 36.219ZM73.0788 36.1644L72.5987 34.9286H71.0164L70.5417 36.1644H70.0342L71.592 32.1595H72.0449L73.5999 36.1644H73.0788ZM72.4486 34.4839L72.0012 33.2753L71.8103 32.6779C71.7557 32.8961 71.6984 33.0953 71.6384 33.2753L71.1855 34.4839H72.4486ZM76.7045 33.349C76.7045 33.7564 76.5654 34.0692 76.2871 34.2875C76.0089 34.5039 75.6169 34.6121 75.1113 34.6121H74.653V36.1644H74.151V32.1759H75.2068C76.2053 32.1759 76.7045 32.5669 76.7045 33.349ZM74.653 34.1811H75.054C75.4505 34.1811 75.7379 34.1174 75.9161 33.9901C76.0944 33.861 76.1835 33.6545 76.1835 33.3708C76.1835 33.1144 76.1007 32.9225 75.9352 32.7952C75.7697 32.6678 75.5114 32.6042 75.1604 32.6042H74.653V34.1811ZM80.584 36.1644H80.082V34.3038H78.0359V36.1644H77.5339V32.1759H78.0359V33.8619H80.082V32.1759H80.584V36.1644ZM84.1769 36.1644L83.6968 34.9286H82.1145L81.6398 36.1644H81.1323L82.6901 32.1595H83.143L84.698 36.1644H84.1769ZM83.5467 34.4839L83.0993 33.2753L82.9084 32.6779C82.8538 32.8961 82.7965 33.0953 82.7365 33.2753L82.2836 34.4839H83.5467ZM86.4495 34.5112L85.4155 36.1644H84.829L85.9475 34.4211C85.6656 34.3302 85.4583 34.1911 85.3255 34.0037C85.1927 33.8164 85.1263 33.579 85.1263 33.2917C85.1263 32.9316 85.25 32.656 85.4974 32.4651C85.7465 32.2723 86.1194 32.1759 86.6159 32.1759H87.7345V36.1644H87.2325V34.5112H86.4495ZM87.2325 32.6042H86.6296C86.2967 32.6042 86.0494 32.6624 85.8875 32.7788C85.7256 32.8952 85.6447 33.0743 85.6447 33.3162C85.6447 33.8291 85.9803 34.0856 86.6514 34.0856H87.2325V32.6042ZM93.54 36.1644H93.0434V32.6178H91.0492V36.1644H90.5472V32.1759H93.54V36.1644ZM97.504 36.1644H97.002V32.6178H95.7388L95.6543 33.2671C95.5397 34.162 95.4397 34.8031 95.3542 35.1905C95.2687 35.5779 95.1568 35.848 95.0186 36.0007C94.8822 36.1517 94.6958 36.2272 94.4593 36.2272C94.3248 36.2272 94.2038 36.2044 94.0965 36.159V35.7388C94.1911 35.7843 94.2938 35.807 94.4048 35.807C94.5485 35.807 94.6621 35.717 94.7458 35.537C94.8313 35.3551 94.9231 34.9449 95.0213 34.3066C95.1214 33.6682 95.2214 32.9579 95.3214 32.1759H97.504V36.1644ZM98.5952 32.1759H99.0645V34.3666C99.0645 34.5212 99.0599 34.7258 99.0508 34.9804C99.0417 35.235 99.0326 35.4005 99.0235 35.4769H99.0481L101.242 32.1759H101.801V36.1644H101.332V33.9955C101.332 33.8064 101.338 33.5863 101.351 33.3353C101.363 33.0825 101.372 32.9188 101.378 32.8443H101.353L99.1545 36.1644H98.5952V32.1759ZM104.147 36.1644H103.642V32.6178H102.396V32.1759H105.386V32.6178H104.147V36.1644ZM108.905 36.1644H108.299L106.496 34.1429V36.1644H105.994V32.1759H106.496V34.1074L108.256 32.1759H108.826L107.093 34.1129L108.905 36.1644ZM111.949 36.1644L111.469 34.9286H109.887L109.412 36.1644H108.905L110.463 32.1595H110.916L112.471 36.1644H111.949ZM111.319 34.4839L110.872 33.2753L110.681 32.6779C110.626 32.8961 110.569 33.0953 110.509 33.2753L110.056 34.4839H111.319ZM53.4007 38.1759H53.8699V40.3666C53.8699 40.5212 53.8654 40.7258 53.8563 40.9804C53.8472 41.235 53.8381 41.4005 53.829 41.4769H53.8536L56.047 38.1759H56.6063V42.1644H56.137V39.9955C56.137 39.8064 56.1434 39.5863 56.1561 39.3353C56.1689 39.0825 56.178 38.9188 56.1834 38.8443H56.1589L53.96 42.1644H53.4007V38.1759ZM62.0217 40.9968C62.0217 41.3896 61.9034 41.6825 61.667 41.8752C61.4306 42.068 61.0686 42.1644 60.5812 42.1644H59.4135V38.1759H61.7816V38.6178H59.9155V39.8619H60.5075C61.0168 39.8619 61.396 39.9519 61.6452 40.132C61.8962 40.312 62.0217 40.6003 62.0217 40.9968ZM59.9155 41.7334H60.5294C60.8713 41.7334 61.1186 41.6761 61.2714 41.5615C61.426 41.4451 61.5033 41.2569 61.5033 40.9968C61.5033 40.7422 61.4233 40.5621 61.2632 40.4566C61.1032 40.3511 60.8313 40.2984 60.4475 40.2984H59.9155V41.7334ZM65.721 42.1644H65.219V38.6178H63.9559L63.8713 39.2671C63.7568 40.162 63.6567 40.8031 63.5712 41.1905C63.4858 41.5779 63.3739 41.848 63.2357 42.0007C63.0993 42.1517 62.9128 42.2272 62.6764 42.2272C62.5418 42.2272 62.4209 42.2044 62.3136 42.159V41.7388C62.4081 41.7843 62.5109 41.807 62.6218 41.807C62.7655 41.807 62.8792 41.717 62.9629 41.537C63.0483 41.3551 63.1402 40.9449 63.2384 40.3066C63.3384 39.6682 63.4385 38.9579 63.5385 38.1759H65.721V42.1644ZM69.3085 42.1644L68.8284 40.9286H67.2461L66.7714 42.1644H66.2639L67.8217 38.1595H68.2746L69.8296 42.1644H69.3085ZM68.6783 40.4839L68.2309 39.2753L68.04 38.6779C67.9854 38.8961 67.9281 39.0953 67.8681 39.2753L67.4152 40.4839H68.6783ZM72.6314 38.1759V38.6233H70.8827V42.1644H70.3807V38.1759H72.6314ZM76.7373 40.1647C76.7373 40.8031 76.5754 41.3051 76.2517 41.6706C75.9298 42.0362 75.4787 42.219 74.8985 42.219C74.3111 42.219 73.8564 42.0398 73.5344 41.6815C73.2143 41.3214 73.0543 40.814 73.0543 40.1592C73.0543 39.5099 73.2134 39.007 73.5317 38.6506C73.8518 38.2923 74.3092 38.1131 74.904 38.1131C75.4823 38.1131 75.9325 38.295 76.2544 38.6588C76.5763 39.0207 76.7373 39.5227 76.7373 40.1647ZM73.5835 40.1647C73.5835 40.6921 73.6954 41.0941 73.9191 41.3705C74.1428 41.647 74.4693 41.7852 74.8985 41.7852C75.3259 41.7852 75.6506 41.6488 75.8725 41.376C76.0944 41.1032 76.2053 40.6994 76.2053 40.1647C76.2053 39.6318 76.0953 39.2308 75.8752 38.9616C75.6551 38.6906 75.3314 38.5551 74.904 38.5551C74.4711 38.5551 74.1428 38.6924 73.9191 38.967C73.6954 39.2398 73.5835 39.6391 73.5835 40.1647ZM77.8231 42.219C77.6176 42.219 77.4366 42.1917 77.2802 42.1371V41.6624C77.4457 41.737 77.6212 41.7743 77.8067 41.7743C78.0013 41.7743 78.1577 41.7288 78.276 41.6379C78.396 41.547 78.5115 41.3814 78.6224 41.1414L77.0865 38.1759H77.6376L78.7779 40.3939C78.8234 40.4793 78.8625 40.5739 78.8953 40.6776H78.9171L78.9389 40.6121L79.0235 40.3884L79.9783 38.1759H80.5103L79.2363 41.0295C79.0853 41.3678 78.948 41.6142 78.8243 41.7688C78.7006 41.9234 78.5588 42.0371 78.3987 42.1099C78.2405 42.1826 78.0486 42.219 77.8231 42.219ZM82.7338 38.5605C82.3045 38.5605 81.9671 38.7042 81.7216 38.9916C81.4761 39.279 81.3533 39.6718 81.3533 40.1701C81.3533 40.6849 81.4724 41.0823 81.7107 41.3623C81.949 41.6406 82.2882 41.7798 82.7283 41.7798C83.012 41.7798 83.3312 41.727 83.6859 41.6215V42.058C83.5167 42.1199 83.354 42.1617 83.1975 42.1835C83.0411 42.2072 82.8611 42.219 82.6574 42.219C82.0699 42.219 81.617 42.0407 81.2988 41.6843C80.9823 41.326 80.8241 40.8194 80.8241 40.1647C80.8241 39.7537 80.8995 39.3935 81.0505 39.0843C81.2033 38.7752 81.4242 38.5369 81.7134 38.3696C82.0044 38.2022 82.3464 38.1186 82.7392 38.1186C83.1612 38.1186 83.5286 38.1968 83.8414 38.3532L83.6395 38.7788C83.3212 38.6333 83.0193 38.5605 82.7338 38.5605ZM85.8193 42.1644H85.3146V38.6178H84.0678V38.1759H87.0579V38.6178H85.8193V42.1644ZM90.2198 39.349C90.2198 39.7564 90.0807 40.0692 89.8024 40.2875C89.5241 40.5039 89.1322 40.6121 88.6266 40.6121H88.1682V42.1644H87.6662V38.1759H88.722C89.7205 38.1759 90.2198 38.5669 90.2198 39.349ZM88.1682 40.1811H88.5693C88.9658 40.1811 89.2531 40.1174 89.4314 39.9901C89.6096 39.861 89.6987 39.6545 89.6987 39.3708C89.6987 39.1144 89.616 38.9225 89.4505 38.7952C89.285 38.6678 89.0267 38.6042 88.6757 38.6042H88.1682V40.1811ZM94.5303 40.1647C94.5303 40.8031 94.3684 41.3051 94.0447 41.6706C93.7227 42.0362 93.2717 42.219 92.6915 42.219C92.104 42.219 91.6493 42.0398 91.3274 41.6815C91.0073 41.3214 90.8473 40.814 90.8473 40.1592C90.8473 39.5099 91.0064 39.007 91.3247 38.6506C91.6448 38.2923 92.1022 38.1131 92.697 38.1131C93.2753 38.1131 93.7255 38.295 94.0474 38.6588C94.3693 39.0207 94.5303 39.5227 94.5303 40.1647ZM91.3765 40.1647C91.3765 40.6921 91.4884 41.0941 91.7121 41.3705C91.9358 41.647 92.2623 41.7852 92.6915 41.7852C93.1189 41.7852 93.4436 41.6488 93.6654 41.376C93.8873 41.1032 93.9983 40.6994 93.9983 40.1647C93.9983 39.6318 93.8882 39.2308 93.6682 38.9616C93.4481 38.6906 93.1244 38.5551 92.697 38.5551C92.2641 38.5551 91.9358 38.6924 91.7121 38.967C91.4884 39.2398 91.3765 39.6391 91.3765 40.1647ZM95.4196 38.1759H95.8889V40.3666C95.8889 40.5212 95.8843 40.7258 95.8752 40.9804C95.8662 41.235 95.8571 41.4005 95.848 41.4769H95.8725L98.066 38.1759H98.6252V42.1644H98.156V39.9955C98.156 39.8064 98.1623 39.5863 98.1751 39.3353C98.1878 39.0825 98.1969 38.9188 98.2024 38.8443H98.1778L95.9789 42.1644H95.4196V38.1759ZM97.0838 37.8567C96.7346 37.8567 96.48 37.7903 96.3199 37.6575C96.1617 37.5248 96.0735 37.3083 96.0553 37.0082H96.5136C96.53 37.1974 96.5791 37.3292 96.661 37.4038C96.7446 37.4784 96.8892 37.5157 97.0947 37.5157C97.2821 37.5157 97.4203 37.4756 97.5094 37.3956C97.6003 37.3156 97.6558 37.1865 97.6758 37.0082H98.1396C98.1123 37.3029 98.0132 37.5184 97.8422 37.6548C97.6713 37.7894 97.4185 37.8567 97.0838 37.8567ZM101.416 38.5605C100.987 38.5605 100.65 38.7042 100.404 38.9916C100.158 39.279 100.036 39.6718 100.036 40.1701C100.036 40.6849 100.155 41.0823 100.393 41.3623C100.631 41.6406 100.971 41.7798 101.411 41.7798C101.694 41.7798 102.014 41.727 102.368 41.6215V42.058C102.199 42.1199 102.036 42.1617 101.88 42.1835C101.723 42.2072 101.543 42.219 101.34 42.219C100.752 42.219 100.299 42.0407 99.9811 41.6843C99.6646 41.326 99.5064 40.8194 99.5064 40.1647C99.5064 39.7537 99.5819 39.3935 99.7328 39.0843C99.8856 38.7752 100.107 38.5369 100.396 38.3696C100.687 38.2022 101.029 38.1186 101.422 38.1186C101.844 38.1186 102.211 38.1968 102.524 38.3532L102.322 38.7788C102.004 38.6333 101.702 38.5605 101.416 38.5605ZM104.502 42.1644H103.997V38.6178H102.75V38.1759H105.74V38.6178H104.502V42.1644ZM106.349 38.1759H107.486C108.021 38.1759 108.407 38.2559 108.643 38.4159C108.881 38.5742 109 38.8234 109 39.1635C109 39.3999 108.936 39.5954 108.807 39.75C108.678 39.9028 108.489 40.0019 108.242 40.0474V40.0747C108.549 40.1274 108.775 40.2338 108.919 40.3939C109.064 40.5539 109.137 40.7658 109.137 41.0295C109.137 41.386 109.015 41.6643 108.771 41.8643C108.527 42.0644 108.187 42.1644 107.751 42.1644H106.349V38.1759ZM106.851 39.8728H107.587C107.9 39.8728 108.127 39.8228 108.269 39.7227C108.411 39.6227 108.482 39.4554 108.482 39.2208C108.482 39.0025 108.404 38.8452 108.247 38.7488C108.093 38.6524 107.847 38.6042 107.511 38.6042H106.851V39.8728ZM106.851 40.2929V41.7388H107.655C107.975 41.7388 108.213 41.677 108.367 41.5533C108.522 41.4296 108.599 41.2423 108.599 40.9913C108.599 40.7531 108.517 40.5776 108.354 40.4648C108.19 40.3502 107.945 40.2929 107.617 40.2929H106.851ZM113.464 40.1647C113.464 40.8031 113.302 41.3051 112.978 41.6706C112.656 42.0362 112.205 42.219 111.625 42.219C111.037 42.219 110.583 42.0398 110.261 41.6815C109.941 41.3214 109.781 40.814 109.781 40.1592C109.781 39.5099 109.94 39.007 110.258 38.6506C110.578 38.2923 111.036 38.1131 111.63 38.1131C112.209 38.1131 112.659 38.295 112.981 38.6588C113.303 39.0207 113.464 39.5227 113.464 40.1647ZM110.31 40.1647C110.31 40.6921 110.422 41.0941 110.645 41.3705C110.869 41.647 111.196 41.7852 111.625 41.7852C112.052 41.7852 112.377 41.6488 112.599 41.376C112.821 41.1032 112.932 40.6994 112.932 40.1647C112.932 39.6318 112.822 39.2308 112.602 38.9616C112.381 38.6906 112.058 38.5551 111.63 38.5551C111.197 38.5551 110.869 38.6924 110.645 38.967C110.422 39.2398 110.31 39.6391 110.31 40.1647Z" fill="#3A3A1F"/>
<path d="M60.0856 14.2686V16.4673H55.6883V27.3624H53.1362V14.2686H60.0856ZM68.1646 14.2686V16.4673H63.4532V19.3923H67.9683V21.5909H63.4532V25.1638H68.1646V27.3624H60.9012V14.2686H68.1646ZM75.2335 27.3624V25.5564H74.8802C73.349 25.5564 72.1188 25.2292 71.1896 24.5748C69.8809 23.6456 69.2265 22.2584 69.2265 20.4131C69.2265 18.5678 69.8809 17.1805 71.1896 16.2513C72.1188 15.597 73.349 15.2698 74.8802 15.2698H75.2335V13.7386H77.7856V15.2698H78.1389C79.6701 15.2698 80.9003 15.597 81.8295 16.2513C83.1382 17.1805 83.7926 18.5678 83.7926 20.4131C83.7926 22.2584 83.1382 23.6456 81.8295 24.5748C80.9003 25.2292 79.6701 25.5564 78.1389 25.5564H77.7856V27.3624H75.2335ZM75.2335 23.3577V17.4685H74.8409C74.0557 17.4685 73.4144 17.6517 72.9171 18.0181C72.2104 18.5416 71.857 19.3399 71.857 20.4131C71.857 21.447 72.2104 22.2453 72.9171 22.8081C73.3882 23.1745 74.0295 23.3577 74.8409 23.3577H75.2335ZM77.7856 17.4685V23.3577H78.1782C79.0027 23.3577 79.6505 23.1745 80.1216 22.8081C80.8153 22.2715 81.1621 21.4732 81.1621 20.4131C81.1621 19.3268 80.8153 18.5285 80.1216 18.0181C79.6243 17.6517 78.9765 17.4685 78.1782 17.4685H77.7856ZM92.628 14.2686V16.4673H87.9166V19.3923H92.4317V21.5909H87.9166V25.1638H92.628V27.3624H85.3646V14.2686H92.628ZM103.819 23.9074V26.8913C102.851 27.4017 101.771 27.6569 100.58 27.6569C98.6696 27.6569 97.073 27.0483 95.7904 25.8312C94.3901 24.4832 93.6899 22.8146 93.6899 20.8253C93.6899 18.7052 94.3901 16.9973 95.7904 15.7017C97.0207 14.55 98.6238 13.9742 100.6 13.9742C101.752 13.9742 102.825 14.2424 103.819 14.779V17.7629C102.969 16.7814 101.915 16.2906 100.659 16.2906C99.3764 16.2906 98.3294 16.7421 97.518 17.6451C96.7196 18.5351 96.3205 19.6082 96.3205 20.8646C96.3205 22.2388 96.7654 23.3315 97.6554 24.143C98.5453 24.9413 99.5792 25.3404 100.757 25.3404C101.987 25.3404 103.008 24.8628 103.819 23.9074ZM113.08 16.4673H110.136V27.3624H107.584V16.4673H104.639V14.2686H113.08V16.4673Z" fill="#3A3A1F"/>
<rect x="22.0502" y="36.3156" width="6.47627" height="6.47627" fill="#3A3A1F"/>
<rect x="14.8001" y="0.0633831" width="6.47627" height="6.47627" fill="#3A3A1F"/>
<rect x="22.0502" y="29.0589" width="13.8777" height="6.47627" fill="#3A3A1F"/>
<rect x="7.39845" y="7.30757" width="13.8777" height="6.47627" fill="#3A3A1F"/>
<rect x="0.151012" y="14.5612" width="21.125" height="6.47627" fill="#3A3A1F"/>
<rect x="22.0502" y="21.8083" width="21.125" height="6.47627" fill="#3A3A1F"/>
<rect x="22.0502" y="14.5612" width="21.125" height="6.47627" fill="#3A3A1F"/>
<rect x="22.047" y="0.057045" width="6.49329" height="15.2517" fill="#3A3A1F"/>
<rect x="0.154253" y="21.802" width="21.125" height="6.47627" fill="#3A3A1F"/>
<rect x="14.7987" y="27.3893" width="6.49329" height="15.4027" fill="#3A3A1F"/>
</svg>
